<?xml version="1.0" standalone="no"?>
<!DOCTYPE svg PUBLIC "-//W3C//DTD SVG 20010904//EN"
 "http://www.w3.org/TR/2001/REC-SVG-20010904/DTD/svg10.dtd">
<svg version="1.0" xmlns="http://www.w3.org/2000/svg"
 width="351.000000pt" height="351.000000pt" viewBox="0 0 351.000000 351.000000"
 preserveAspectRatio="xMidYMid meet">
<metadata>
Created by potrace 1.11, written by Peter Selinger 2001-2013
</metadata>
<g transform="translate(0.000000,351.000000) scale(0.100000,-0.100000)"
fill="#000000" stroke="none">
<path d="M2953 3496 c-4 -8 -22 -29 -38 -48 -17 -18 -98 -113 -180 -212 -253
-302 -625 -743 -893 -1061 -52 -60 -128 -152 -170 -202 l-77 -93 -35 39 c-19
21 -44 49 -55 62 -11 13 -67 80 -125 149 -140 166 -143 171 -155 184 -6 6 -66
79 -135 161 -68 83 -187 224 -263 315 -77 91 -158 187 -181 214 -22 28 -58 70
-80 95 -21 25 -45 55 -55 66 -9 11 -52 63 -95 115 -44 52 -81 97 -82 99 -4 5
-113 -83 -113 -93 -1 -7 59 -88 79 -106 6 -6 131 -155 369 -440 90 -107 182
-217 206 -245 41 -48 153 -182 468 -558 l149 -177 -98 -118 c-54 -64 -159
-189 -234 -278 -74 -89 -153 -183 -175 -209 -22 -27 -44 -53 -50 -59 -5 -6
-68 -81 -139 -166 -263 -315 -491 -586 -533 -635 -24 -27 -43 -54 -43 -60 1
-11 109 -100 114 -94 3 4 297 355 341 408 11 13 25 29 30 35 6 6 102 121 215
256 112 135 209 250 215 256 5 6 98 117 205 245 107 128 209 248 225 266 l30
33 75 -92 c41 -50 80 -96 85 -102 11 -12 250 -295 444 -526 62 -74 132 -157
156 -185 23 -27 169 -201 325 -385 155 -184 285 -336 289 -337 3 -2 31 19 60
45 l55 49 -159 189 c-88 104 -209 248 -270 319 -60 72 -129 153 -151 180 -62
73 -333 396 -358 425 -18 22 -53 63 -152 180 -12 14 -85 100 -163 192 l-140
167 196 233 c108 128 215 256 238 283 24 28 119 140 211 250 93 110 178 211
190 225 12 14 98 115 191 226 92 110 213 254 268 319 l99 118 -54 48 c-60 53
-65 56 -77 35z"/>
<path d="M3157 3320 c-7 -11 -32 -41 -54 -67 -92 -108 -338 -400 -483 -573
-85 -102 -157 -187 -160 -190 -3 -3 -64 -75 -135 -160 -121 -144 -165 -196
-190 -224 -6 -6 -53 -63 -105 -126 -52 -63 -105 -126 -117 -140 -56 -64 -63
-74 -63 -81 0 -4 39 -54 88 -111 48 -57 121 -143 162 -193 41 -49 87 -103 101
-120 29 -32 288 -340 354 -420 22 -26 45 -53 50 -59 6 -6 44 -51 85 -101 41
-49 77 -92 80 -95 3 -3 30 -34 60 -70 30 -36 60 -70 65 -76 6 -6 28 -33 50
-60 56 -67 215 -257 226 -268 9 -11 119 70 119 88 -1 6 -28 43 -61 81 -34 39
-127 149 -207 245 -81 96 -149 177 -153 180 -3 3 -67 79 -143 170 -76 91 -148
176 -160 190 -11 14 -57 68 -101 120 -44 52 -84 100 -90 106 -5 6 -28 33 -51
60 -23 27 -94 112 -158 188 -64 76 -115 145 -112 151 2 7 150 185 328 396 178
210 336 398 353 418 16 20 148 177 293 349 145 172 262 316 260 321 -5 13 -98
91 -108 91 -5 0 -15 -9 -23 -20z"/>
</g>
</svg>
